<?xml version="1.0" encoding="UTF-8" standalone="no"?><!DOCTYPE svg PUBLIC "-//W3C//DTD SVG 1.1//EN" "http://www.w3.org/Graphics/SVG/1.1/DTD/svg11.dtd"><svg width="100%" height="100%" viewBox="0 0 2634 1482" version="1.1" xmlns="http://www.w3.org/2000/svg" xmlns:xlink="http://www.w3.org/1999/xlink" xml:space="preserve" xmlns:serif="http://www.serif.com/" style="fill-rule:evenodd;clip-rule:evenodd;stroke-linecap:round;stroke-linejoin:round;stroke-miterlimit:1.5;"><g id="BICICLETA"><path d="M90.495,1059.675l30.054,80.556" style="fill:none;stroke:#231f20;stroke-width:1.2px;"/><path d="M444.95,984.341c-3.001,4.761 -2.242,7.642 4.987,7.288l14.193,-6.521c4.419,-3.565 2.038,-5.77 -3.774,-7.288" style="fill:#00fc00;fill-opacity:0;stroke:#231f20;stroke-width:1.4px;"/><path d="M246.244,1015.029c-5.838,-1.487 -6.437,-4.139 -3.069,-7.672l15.728,-7.288c4.81,0.843 6.571,2.993 4.22,6.905" style="fill:#00fc00;fill-opacity:0;stroke:#231f20;stroke-width:1.4px;"/><path d="M130.938,1139.397l118.533,-108.176l-2.302,-16.878l16.111,-6.905l2.302,16.491l165.332,-74.032l0,-4.699c0,0 11.604,-10.933 13.906,-5.754c2.302,5.179 15.536,39.703 15.536,39.703l-14.96,5.754l-2.302,-5.754l-113.914,154.496l-18.716,-10.07l124.287,-161.976c0,0 -166.579,76.529 -164.278,75.378c2.302,-1.151 26.181,85.447 26.181,85.447l-14.385,7.48l-25.51,-83.721l-115.909,99.257l124.575,5.466c3.535,-9.08 8.705,-16.526 16.843,-21.002" style="fill:#00fc00;fill-opacity:0;stroke:#231f20;stroke-width:1.4px;"/><path d="M264.275,1165.29l-123.999,-6.617c-8.769,7.417 -16.165,8.311 -21.865,1.151c-5.024,-11.048 -1.629,-18.393 12.528,-21.002" style="fill:#00fc00;fill-opacity:0;stroke:#231f20;stroke-width:1.4px;"/><path d="M460.356,986.842l71.446,157.461c7.263,5.162 9.714,10.694 3.678,16.878c-10.223,3.866 -14.712,-2.459 -15.728,-14.96l-68.665,-154.562" style="fill:#00fc00;fill-opacity:0;stroke:#231f20;stroke-width:1.4px;"/><path d="M470.925,1038.886c-70.916,50.606 -89.129,134.649 -19.838,209.039c54.231,46.641 150.886,55.781 197.062,-47.758c32.982,-112.446 -58.107,-211.89 -166.291,-165.716" style="fill:#fff;fill-opacity:0;stroke:#231f20;stroke-width:1.4px;"/><path d="M479.337,1057.95c-61.025,42.067 -76.697,111.928 -17.071,173.765c46.667,38.771 129.841,46.369 169.577,-39.7c28.382,-93.472 -50.003,-176.136 -143.098,-137.753" style="fill:#00fc00;fill-opacity:0;stroke:#231f20;stroke-width:1.4px;"/><path d="M224.616,1055.246c-72.643,-48.093 -157.636,-35.005 -202.281,56.329c-24.13,67.336 1.946,160.855 115.154,166.894c89.518,4.775 121.487,-65.981 129.4,-102.124" style="fill:#00fc00;fill-opacity:0;stroke:#231f20;stroke-width:1.4px;"/><path d="M209.828,1069.926c-61.129,-41.915 -131.97,-31.533 -168.356,46.282c-19.49,57.456 3.198,137.835 97.788,144.117c48.386,3.213 111.593,-52.928 109.743,-109.42" style="fill:#00fc00;fill-opacity:0;stroke:#231f20;stroke-width:1.4px;"/><path d="M234.456,1064.946c22.238,22.119 33.466,45.011 35.756,76.337" style="fill:#00fc00;fill-opacity:0;stroke:#231f20;stroke-width:1.4px;"/><path d="M218.344,1079.331c18.929,20.229 30.143,43.673 30.658,71.574" style="fill:#00fc00;fill-opacity:0;stroke:#231f20;stroke-width:1.4px;"/><path d="M360.469,1169.67l-48.909,-8.631c-9.903,-4.181 -14.705,-2.66 -15.913,2.877c-0.727,6.748 2.19,10.067 10.159,8.631l54.663,5.754c4.978,2.114 12.732,1.658 12.083,-2.877c1.463,-4.054 -5.938,-6.879 -12.083,-5.754Z" style="fill:#00fc00;fill-opacity:0;stroke:#231f20;stroke-width:1.4px;"/><path d="M340.534,1166.152c1.862,-13.41 -1.964,-24.235 -11.355,-32.531c-11.275,-8.821 -26.45,-13.614 -33.533,-10.597" style="fill:#00fc00;fill-opacity:0;stroke:#231f20;stroke-width:1.4px;"/><path d="M188.251,927.444c25.57,7.771 49.041,5.463 70.775,-5.179c9.627,-1.364 16.363,-0.363 17.55,5.179l-0.288,4.603c0,0 -35.681,15.423 -52.649,18.701c-10.62,3.014 -19.397,1.972 -26.181,-3.452l-9.494,-9.244c-3.543,-4.628 -3.841,-8.282 0.288,-10.608Z" style="fill:#00fc00;fill-opacity:0;stroke:#231f20;stroke-width:1.4px;"/><path d="M245.216,952.412c-8.597,5.127 -18.063,7.211 -28.195,6.967c-6.088,0.65 -11.654,-3.909 -16.974,-10.933" style="fill:#00fc00;fill-opacity:0;stroke:#231f20;stroke-width:1.4px;"/><path d="M338.623,1176.344c-8.588,21.23 -23.059,27.425 -40.854,25.126c-26.817,-3.465 -37.16,-26.817 -33.495,-50.565" style="fill:#00fc00;fill-opacity:0;stroke:#231f20;stroke-width:1.4px;"/><path d="M245.216,952.412l10.645,-12.596" style="fill:none;stroke:#231f20;stroke-width:1.4px;"/><path d="M222.631,959.441l8.271,4.829l14.313,-4.829l0,-7.029" style="fill:#00fc00;fill-opacity:0;stroke:#231f20;stroke-width:1.4px;"/><path d="M230.903,964.27c0.216,1.726 14.313,43.279 14.313,43.279" style="fill:#00fc00;fill-opacity:0;stroke:#231f20;stroke-width:1.4px;"/><path d="M245.216,958.341l12.947,41.728" style="fill:none;stroke:#231f20;stroke-width:1.4px;"/><path d="M433.277,877.429c-7.83,3.28 -9.585,7.838 -5.754,13.572c3.268,3.437 7.319,4.005 12.429,0.69c4.146,-8.577 1.454,-13.051 -6.675,-14.263Z" style="fill:#00fc00;fill-opacity:0;stroke:#231f20;stroke-width:1.4px;"/><path d="M436.038,877.429c19.399,10.561 33.999,21.578 40.508,33.366c0.411,5.324 -2.636,6.875 -8.976,4.833c-5.872,-8.257 -18.153,-15.313 -33.846,-21.728" style="fill:#00fc00;fill-opacity:0;stroke:#231f20;stroke-width:1.4px;"/><path d="M463.352,910.861l-37.781,-1.907l-5.184,7.541l7.365,21.46l14.125,-3.913l-4.919,-13.58l-14.499,2.071" style="fill:#00fc00;fill-opacity:0;stroke:#231f20;stroke-width:1.4px;"/><path d="M436.729,920.232l37.286,-3.737" style="fill:none;stroke:#231f20;stroke-width:1.4px;"/><path d="M476.584,908.955l20.448,11.278l-3.452,5.754l-14.96,-9.491" style="fill:#00fc00;fill-opacity:0;stroke:#231f20;stroke-width:1.4px;"/><path d="M493.349,925.986l-6.541,5.984l-15.784,-14.5" style="fill:#00fc00;fill-opacity:0;stroke:#231f20;stroke-width:1.4px;"/><path d="M486.807,931.971c0.224,22.584 -11.635,30.736 -33.507,26.929" style="fill:#00fc00;fill-opacity:0;stroke:#231f20;stroke-width:3.4px;"/><path d="M428.213,938.052c-4.573,4.468 -3.483,7.048 2.992,7.833" style="fill:#00fc00;fill-opacity:0;stroke:#231f20;stroke-width:1.2px;"/><path d="M441.87,933.922c4.132,-0.687 5.239,1.87 2.915,4.129" style="fill:#00fc00;fill-opacity:0;stroke:#231f20;stroke-width:1.2px;"/><path d="M67.036,1078.088l63.901,62.144" style="fill:none;stroke:#231f20;stroke-width:1.2px;"/><path d="M50.925,1099.953l69.624,46.608" style="fill:none;stroke:#231f20;stroke-width:1.2px;"/><path d="M39.993,1130.45l76.529,20.715" style="fill:none;stroke:#231f20;stroke-width:1.2px;"/><path d="M35.965,1162.672l81.132,-5.754" style="fill:none;stroke:#231f20;stroke-width:1.2px;"/><path d="M46.897,1202.375l66.747,-38.552" style="fill:none;stroke:#231f20;stroke-width:1.2px;"/><path d="M64.159,1228.268l53.512,-60.993" style="fill:none;stroke:#231f20;stroke-width:1.2px;"/><path d="M127.454,1163.248l-16.111,91.489" style="fill:none;stroke:#231f20;stroke-width:1.2px;"/><path d="M133.783,1160.946l9.782,97.819" style="fill:none;stroke:#231f20;stroke-width:1.2px;"/><path d="M129.18,1163.823l44.881,88.612" style="fill:none;stroke:#231f20;stroke-width:1.2px;"/><path d="M136.66,1159.22l62.719,78.83" style="fill:none;stroke:#231f20;stroke-width:1.2px;"/><path d="M225.272,1213.883l-74.802,-55.239" style="fill:none;stroke:#231f20;stroke-width:1.2px;"/><path d="M245.411,1178.208c-6.905,-1.151 -79.406,-18.413 -79.406,-18.413" style="fill:#00fc00;fill-opacity:0;stroke:#231f20;stroke-width:1.2px;"/><path d="M247.713,1139.081l-94.941,6.905" style="fill:none;stroke:#231f20;stroke-width:1.2px;"/><path d="M223.546,1086.144l-77.104,60.417" style="fill:none;stroke:#231f20;stroke-width:1.2px;"/><path d="M192.474,1060.826l-47.183,64.445" style="fill:none;stroke:#231f20;stroke-width:1.2px;"/><path d="M156.224,1046.441l-16.111,84.009" style="fill:none;stroke:#231f20;stroke-width:1.2px;"/><path d="M126.303,1045.29l0.575,93.215" style="fill:none;stroke:#231f20;stroke-width:1.2px;"/><path d="M532.721,1045.29l-0.575,97.819" style="fill:none;stroke:#231f20;stroke-width:1.2px;"/><path d="M566.094,1049.318l-30.496,97.819" style="fill:none;stroke:#231f20;stroke-width:1.2px;"/><path d="M601.194,1070.032l-62.144,80.556" style="fill:none;stroke:#231f20;stroke-width:1.2px;"/><path d="M624.785,1095.926l-87.461,52.362" style="fill:none;stroke:#231f20;stroke-width:1.2px;"/><path d="M636.868,1133.327l-97.819,17.837" style="fill:none;stroke:#231f20;stroke-width:1.2px;"/><path d="M539.625,1156.918l97.819,9.782" style="fill:none;stroke:#231f20;stroke-width:1.2px;"/><path d="M536.173,1158.069l90.338,41.429" style="fill:none;stroke:#231f20;stroke-width:1.2px;"/><path d="M536.748,1160.371l64.445,73.076" style="fill:none;stroke:#231f20;stroke-width:1.2px;"/><path d="M533.296,1161.522l37.977,89.763" style="fill:none;stroke:#231f20;stroke-width:1.2px;"/><path d="M528.693,1161.522l21.29,96.092" style="fill:none;stroke:#231f20;stroke-width:1.2px;"/><path d="M530.419,1161.522l-17.262,96.092" style="fill:none;stroke:#231f20;stroke-width:1.2px;"/><path d="M520.637,1155.192l-49.485,85.735" style="fill:none;stroke:#231f20;stroke-width:1.2px;"/><path d="M443.533,1212.157l84.009,-51.786" style="fill:none;stroke:#231f20;stroke-width:1.2px;"/><path d="M426.846,1131.025l95.517,23.016" style="fill:none;stroke:#231f20;stroke-width:1.2px;"/><path d="M426.846,1166.125l93.791,-16.111" style="fill:none;stroke:#231f20;stroke-width:1.2px;"/><path d="M441.231,1095.926l78.83,50.06" style="fill:none;stroke:#231f20;stroke-width:1.2px;"/><path d="M467.7,1067.731l33.949,36.826" style="fill:none;stroke:#231f20;stroke-width:1.2px;"/><path d="M498.772,1051.044l25.318,77.104" style="fill:none;stroke:#231f20;stroke-width:1.2px;"/></g></svg>