<?xml version="1.0"?><svg width="100%" height="100%" viewBox="0 0 2634 1482" version="1.1" xmlns="http://www.w3.org/2000/svg" xmlns:xlink="http://www.w3.org/1999/xlink" xml:space="preserve" xmlns:serif="http://www.serif.com/" style="fill-rule:evenodd;clip-rule:evenodd;stroke-linejoin:round;stroke-miterlimit:2;"><g><g><g><path d="M1163.874,464.104l0,-22.584l14.829,0l0,2.065l-12.543,0l0,18.454l13.006,0l0,2.065l-15.292,0Zm2.039,-10.453l0,-2.033l11.43,0l0,2.033l-11.43,0Z" style="fill-rule:nonzero;stroke:#000;stroke-width:1.75px;"></path></g><g><path d="M1191.555,464.104l0,-22.584l8.805,0c2.317,0 4.325,0.484 6.086,1.452c1.73,0.936 3.089,2.291 4.047,3.968c0.989,1.678 1.452,3.646 1.452,5.872c0,2.226 -0.463,4.194 -1.452,5.872c-0.958,1.678 -2.317,3.033 -4.047,3.968c-1.761,0.968 -3.769,1.452 -6.086,1.452l-8.805,0Zm2.286,-2.065l6.395,0c1.915,0 3.584,-0.387 5.005,-1.194c1.39,-0.774 2.502,-1.871 3.275,-3.259c0.772,-1.355 1.174,-2.968 1.174,-4.775c0,-1.807 -0.402,-3.42 -1.174,-4.807c-0.772,-1.355 -1.884,-2.452 -3.275,-3.226c-1.421,-0.807 -3.089,-1.194 -5.005,-1.194l-6.395,0l0,18.454Z" style="fill-rule:nonzero;stroke:#000;stroke-width:1.75px;"></path></g><g><rect x="1224.085" y="441.52" width="2.255" height="22.584" style="stroke:#000;stroke-width:1.75px;"></rect></g><g><path d="M1249.819,464.297c-1.606,0 -3.12,-0.258 -4.51,-0.839c-1.359,-0.581 -2.564,-1.387 -3.584,-2.42c-1.019,-1.032 -1.792,-2.258 -2.379,-3.646c-0.556,-1.387 -0.834,-2.936 -0.834,-4.581c0,-1.645 0.278,-3.194 0.834,-4.581c0.587,-1.387 1.359,-2.613 2.379,-3.646c1.019,-1.032 2.224,-1.839 3.614,-2.42c1.39,-0.581 2.873,-0.839 4.51,-0.839c1.576,0 3.058,0.258 4.418,0.807c1.359,0.548 2.533,1.387 3.491,2.484l-1.452,1.516c-0.865,-0.936 -1.854,-1.613 -2.935,-2.065c-1.081,-0.419 -2.224,-0.613 -3.46,-0.613c-1.298,0 -2.502,0.226 -3.614,0.678c-1.112,0.484 -2.101,1.129 -2.904,2c-0.834,0.839 -1.483,1.807 -1.915,2.968c-0.463,1.129 -0.711,2.355 -0.711,3.71c0,1.355 0.247,2.581 0.711,3.71c0.433,1.161 1.081,2.129 1.915,2.968c0.803,0.871 1.792,1.516 2.904,2c1.112,0.452 2.317,0.678 3.614,0.678c1.236,0 2.379,-0.194 3.46,-0.645c1.081,-0.419 2.07,-1.129 2.935,-2.065l1.452,1.516c-0.958,1.097 -2.132,1.936 -3.491,2.484c-1.359,0.581 -2.842,0.839 -4.449,0.839Zm-0.865,6.904c-0.494,0 -0.958,-0.065 -1.39,-0.194c-0.433,-0.129 -0.834,-0.29 -1.205,-0.548l0.525,-1.226c0.309,0.194 0.649,0.355 0.989,0.452c0.34,0.129 0.68,0.161 1.05,0.161c0.618,0 1.112,-0.129 1.421,-0.387c0.34,-0.258 0.494,-0.645 0.494,-1.129c0,-0.419 -0.154,-0.774 -0.463,-1.065c-0.34,-0.258 -0.803,-0.419 -1.452,-0.419l-0.711,0l0.741,-2.936l1.328,0l-0.463,1.871c0.834,0.065 1.483,0.355 1.946,0.839c0.463,0.484 0.68,1.065 0.68,1.774c0,0.871 -0.309,1.549 -0.958,2.065c-0.649,0.516 -1.514,0.742 -2.533,0.742Z" style="fill-rule:nonzero;stroke:#000;stroke-width:1.75px;"></path></g><g><path d="M1277.716,464.297c-1.637,0 -3.151,-0.29 -4.541,-0.839c-1.39,-0.581 -2.595,-1.387 -3.614,-2.42c-1.019,-1.065 -1.792,-2.258 -2.379,-3.646c-0.556,-1.42 -0.834,-2.936 -0.834,-4.581c0,-1.645 0.278,-3.162 0.834,-4.581c0.587,-1.387 1.359,-2.581 2.379,-3.646c1.05,-1.032 2.255,-1.839 3.614,-2.42c1.39,-0.581 2.904,-0.839 4.541,-0.839c1.637,0 3.12,0.258 4.51,0.839c1.39,0.581 2.564,1.387 3.584,2.42c1.05,1.032 1.823,2.258 2.41,3.646c0.556,1.387 0.834,2.936 0.834,4.581c0,1.645 -0.278,3.194 -0.834,4.581c-0.587,1.387 -1.359,2.613 -2.41,3.646c-1.019,1.032 -2.193,1.839 -3.584,2.42c-1.39,0.581 -2.873,0.839 -4.51,0.839Zm0,-2.129c1.298,0 2.471,-0.226 3.584,-0.678c1.112,-0.484 2.07,-1.129 2.873,-1.968c0.834,-0.871 1.483,-1.871 1.915,-3c0.463,-1.129 0.68,-2.355 0.68,-3.71c0,-1.355 -0.216,-2.581 -0.68,-3.71c-0.433,-1.129 -1.081,-2.129 -1.884,-2.968c-0.834,-0.871 -1.792,-1.516 -2.904,-2c-1.081,-0.452 -2.286,-0.678 -3.584,-0.678c-1.298,0 -2.502,0.226 -3.614,0.678c-1.112,0.484 -2.07,1.129 -2.904,2c-0.803,0.839 -1.452,1.839 -1.884,2.968c-0.463,1.129 -0.711,2.355 -0.711,3.71c0,1.355 0.247,2.581 0.711,3.71c0.433,1.129 1.081,2.129 1.884,3c0.834,0.839 1.792,1.484 2.904,1.968c1.112,0.452 2.317,0.678 3.614,0.678Zm2.317,-22.584c-0.525,0 -0.989,-0.129 -1.39,-0.355c-0.402,-0.226 -0.772,-0.484 -1.081,-0.774c-0.34,-0.29 -0.68,-0.581 -0.989,-0.807c-0.34,-0.226 -0.68,-0.355 -1.081,-0.355c-0.463,0 -0.834,0.226 -1.143,0.613c-0.278,0.419 -0.433,0.936 -0.463,1.549l-1.421,0c0,-1.065 0.278,-1.936 0.803,-2.646c0.525,-0.742 1.236,-1.097 2.132,-1.097c0.525,0 1.019,0.129 1.421,0.355c0.402,0.226 0.741,0.484 1.081,0.807c0.34,0.29 0.649,0.548 0.989,0.774c0.309,0.226 0.68,0.355 1.05,0.355c0.494,0 0.865,-0.194 1.143,-0.613c0.278,-0.419 0.433,-0.903 0.463,-1.484l1.39,0c0,1.065 -0.278,1.936 -0.803,2.646c-0.494,0.678 -1.205,1.032 -2.101,1.032Z" style="fill-rule:nonzero;stroke:#000;stroke-width:1.75px;"></path></g><g><path d="M1301.195,464.104l0,-22.584l14.829,0l0,2.065l-12.543,0l0,18.454l13.006,0l0,2.065l-15.292,0Zm2.039,-10.453l0,-2.033l11.43,0l0,2.033l-11.43,0Z" style="fill-rule:nonzero;stroke:#000;stroke-width:1.75px;"></path></g><g><path d="M1334.837,464.297c-1.606,0 -3.151,-0.258 -4.634,-0.807c-1.452,-0.548 -2.595,-1.258 -3.398,-2.129l0.896,-1.839c0.772,0.774 1.792,1.42 3.089,1.968c1.267,0.516 2.626,0.774 4.047,0.774c1.359,0 2.471,-0.161 3.306,-0.516c0.865,-0.355 1.483,-0.839 1.884,-1.452c0.433,-0.613 0.618,-1.29 0.618,-2c0,-0.903 -0.247,-1.613 -0.711,-2.129c-0.494,-0.548 -1.112,-0.968 -1.915,-1.29c-0.772,-0.323 -1.668,-0.581 -2.595,-0.807c-0.958,-0.226 -1.884,-0.484 -2.842,-0.774c-0.958,-0.258 -1.823,-0.613 -2.595,-1.065c-0.803,-0.452 -1.452,-1.032 -1.915,-1.807c-0.494,-0.742 -0.741,-1.71 -0.741,-2.904c0,-1.097 0.309,-2.129 0.865,-3.065c0.556,-0.936 1.421,-1.71 2.595,-2.291c1.174,-0.581 2.657,-0.839 4.51,-0.839c1.205,0 2.41,0.161 3.614,0.516c1.205,0.355 2.224,0.871 3.089,1.484l-0.772,1.903c-0.927,-0.645 -1.884,-1.129 -2.935,-1.42c-1.05,-0.29 -2.039,-0.452 -2.997,-0.452c-1.328,0 -2.41,0.194 -3.244,0.548c-0.865,0.387 -1.483,0.871 -1.884,1.484c-0.371,0.613 -0.587,1.29 -0.587,2.065c0,0.871 0.247,1.581 0.741,2.129c0.463,0.516 1.112,0.936 1.884,1.258c0.803,0.323 1.668,0.581 2.626,0.807c0.927,0.258 1.884,0.516 2.842,0.774c0.927,0.29 1.792,0.645 2.595,1.065c0.772,0.452 1.421,1.032 1.884,1.774c0.494,0.742 0.741,1.71 0.741,2.871c0,1.097 -0.278,2.129 -0.865,3.065c-0.556,0.936 -1.452,1.678 -2.657,2.258c-1.174,0.581 -2.688,0.839 -4.541,0.839Z" style="fill-rule:nonzero;stroke:#000;stroke-width:1.75px;"></path></g></g><g><path d="M1070.646,416.377c11.102,-5.809 17.719,-18.004 21.853,-33.736c2.325,-11.152 5.381,-20.048 8.551,-28.775c0.93,-4.602 4.137,-12.927 8.868,-18.853c3.557,-11.245 10.056,-11.576 18.686,-19.514c7.612,-6.078 12.658,-5.499 19.003,3.638c12.665,19.125 21.539,34.126 23.436,51.266c4.648,5.812 9.289,12.389 12.669,4.299c4.475,-2.627 9.72,-8.027 13.935,-4.465c4.37,-1.259 7.983,-3.206 9.819,-8.434c1.975,-0.041 4.273,-2.707 5.949,-3.032c6.765,-1.314 10.663,-2.415 13.054,-7.882c2.46,-3.401 7.971,-6.384 12.333,-5.814c10.479,-1.346 8.374,-2.854 11.862,-11.501c3.114,-59.521 13.863,-110.038 36.613,-146.406c11.682,-4.377 18.723,-1.246 24.703,3.969c11.509,-1.452 16.757,2.278 19.398,11.411c1.875,6.479 0.954,5.391 7.823,8.982c1.584,0.829 4.296,4.619 7.469,6.823c3.159,2.193 6.236,6.231 10.916,10.49c7.132,6.49 7.259,9.341 11.045,15.547c1.89,3.097 2.081,9.606 6.37,14.322c8.559,9.412 15.492,20.786 15.688,34.682c0.05,3.554 3.472,8.855 4.428,11.274c2.468,4.543 3.039,9.057 3.611,17.216c0.706,10.097 -0.163,11.297 2.565,21.067c5.859,12.137 10.557,22.591 12.827,30.76c3.204,17.88 11.101,31.622 22.328,40.682" style="fill:none;stroke:#000;stroke-width:4.37px;stroke-linecap:round;stroke-miterlimit:1.5;"></path></g><g><path d="M1063.824,373.71c-68.052,-152.621 47.771,-300.211 179.575,-307.596c156.091,-8.746 266.551,156.105 200.478,303.627" style="fill:none;stroke:#000;stroke-width:4.37px;stroke-linecap:round;stroke-miterlimit:1.5;"></path></g><g><g><path d="M1121.769,517.667c-2.261,0 -4.392,-0.363 -6.349,-1.181c-1.913,-0.817 -3.61,-1.953 -5.045,-3.406c-1.435,-1.453 -2.522,-3.179 -3.349,-5.132c-0.783,-1.953 -1.174,-4.133 -1.174,-6.449c0,-2.316 0.391,-4.496 1.174,-6.449c0.826,-1.953 1.913,-3.679 3.349,-5.132c1.435,-1.453 3.131,-2.589 5.088,-3.406c1.957,-0.817 4.044,-1.181 6.349,-1.181c2.218,0 4.305,0.363 6.219,1.135c1.913,0.772 3.566,1.953 4.914,3.497l-2.044,2.135c-1.218,-1.317 -2.609,-2.271 -4.131,-2.907c-1.522,-0.59 -3.131,-0.863 -4.871,-0.863c-1.827,0 -3.523,0.318 -5.088,0.954c-1.566,0.681 -2.957,1.59 -4.088,2.816c-1.174,1.181 -2.087,2.543 -2.696,4.178c-0.652,1.59 -1,3.315 -1,5.223c0,1.907 0.348,3.633 1,5.223c0.609,1.635 1.522,2.997 2.696,4.178c1.131,1.226 2.522,2.135 4.088,2.816c1.566,0.636 3.262,0.954 5.088,0.954c1.74,0 3.349,-0.272 4.871,-0.908c1.522,-0.59 2.914,-1.59 4.131,-2.907l2.044,2.135c-1.348,1.544 -3.001,2.725 -4.914,3.497c-1.913,0.817 -4.001,1.181 -6.262,1.181Z" style="fill-rule:nonzero;stroke:#000;stroke-width:1.31px;"></path></g><g><path d="M1143.601,517.395l13.916,-31.791l3.175,0l13.916,31.791l-3.392,0l-12.786,-29.838l1.305,0l-12.786,29.838l-3.349,0Zm5.48,-8.493l0.957,-2.725l17.7,0l1,2.725l-19.657,0Z" style="fill-rule:nonzero;stroke:#000;stroke-width:1.31px;"></path></g><g><path d="M1189.525,517.395l0,-31.791l11.394,0c3.87,0 6.915,0.954 9.133,2.861c2.218,1.953 3.305,4.587 3.305,8.039c0,2.225 -0.478,4.178 -1.479,5.768c-1,1.635 -2.435,2.861 -4.305,3.724c-1.87,0.908 -4.088,1.317 -6.654,1.317l-9.611,0l1.435,-1.544l0,11.627l-3.218,0Zm20.788,0l-7.828,-11.536l3.479,0l7.871,11.536l-3.523,0Zm-17.569,-11.354l-1.435,-1.59l9.524,0c3.044,0 5.349,-0.681 6.958,-2.089c1.566,-1.408 2.348,-3.361 2.348,-5.859c0,-2.543 -0.783,-4.542 -2.348,-5.904c-1.609,-1.362 -3.914,-2.089 -6.958,-2.089l-9.524,0l1.435,-1.59l0,19.12Z" style="fill-rule:nonzero;stroke:#000;stroke-width:1.31px;"></path></g><g><rect x="1230.839" y="485.603" width="3.175" height="31.791" style="stroke:#000;stroke-width:1.31px;"></rect></g><g><path d="M1267.151,517.667c-2.305,0 -4.436,-0.409 -6.393,-1.181c-1.957,-0.817 -3.653,-1.953 -5.088,-3.406c-1.435,-1.499 -2.522,-3.179 -3.349,-5.132c-0.783,-1.998 -1.174,-4.133 -1.174,-6.449c0,-2.316 0.391,-4.451 1.174,-6.449c0.826,-1.953 1.913,-3.633 3.349,-5.132c1.479,-1.453 3.175,-2.589 5.088,-3.406c1.957,-0.817 4.088,-1.181 6.393,-1.181c2.305,0 4.392,0.363 6.349,1.181c1.957,0.817 3.61,1.953 5.045,3.406c1.479,1.453 2.566,3.179 3.392,5.132c0.783,1.953 1.174,4.133 1.174,6.449c0,2.316 -0.391,4.496 -1.174,6.449c-0.826,1.953 -1.913,3.679 -3.392,5.132c-1.435,1.453 -3.088,2.589 -5.045,3.406c-1.957,0.817 -4.044,1.181 -6.349,1.181Zm0,-2.997c1.827,0 3.479,-0.318 5.045,-0.954c1.566,-0.681 2.914,-1.59 4.044,-2.77c1.174,-1.226 2.087,-2.634 2.696,-4.224c0.652,-1.59 0.957,-3.315 0.957,-5.223c0,-1.907 -0.304,-3.633 -0.957,-5.223c-0.609,-1.59 -1.522,-2.997 -2.653,-4.178c-1.174,-1.226 -2.522,-2.135 -4.088,-2.816c-1.522,-0.636 -3.218,-0.954 -5.045,-0.954c-1.827,0 -3.523,0.318 -5.088,0.954c-1.566,0.681 -2.914,1.59 -4.088,2.816c-1.131,1.181 -2.044,2.589 -2.653,4.178c-0.652,1.59 -1,3.315 -1,5.223c0,1.907 0.348,3.633 1,5.223c0.609,1.59 1.522,2.997 2.653,4.224c1.174,1.181 2.522,2.089 4.088,2.77c1.566,0.636 3.262,0.954 5.088,0.954Z" style="fill-rule:nonzero;stroke:#000;stroke-width:1.31px;"></path></g><g><path d="M1313.423,517.667c-2.261,0 -4.392,-0.363 -6.349,-1.181c-1.913,-0.817 -3.61,-1.953 -5.045,-3.406c-1.435,-1.453 -2.522,-3.179 -3.349,-5.132c-0.783,-1.953 -1.174,-4.133 -1.174,-6.449c0,-2.316 0.391,-4.496 1.174,-6.449c0.826,-1.953 1.913,-3.679 3.349,-5.132c1.435,-1.453 3.131,-2.589 5.088,-3.406c1.957,-0.817 4.044,-1.181 6.349,-1.181c2.218,0 4.305,0.363 6.219,1.135c1.913,0.772 3.566,1.953 4.914,3.497l-2.044,2.135c-1.218,-1.317 -2.609,-2.271 -4.131,-2.907c-1.522,-0.59 -3.131,-0.863 -4.871,-0.863c-1.827,0 -3.523,0.318 -5.088,0.954c-1.566,0.681 -2.957,1.59 -4.088,2.816c-1.174,1.181 -2.087,2.543 -2.696,4.178c-0.652,1.59 -1,3.315 -1,5.223c0,1.907 0.348,3.633 1,5.223c0.609,1.635 1.522,2.997 2.696,4.178c1.131,1.226 2.522,2.135 4.088,2.816c1.566,0.636 3.262,0.954 5.088,0.954c1.74,0 3.349,-0.272 4.871,-0.908c1.522,-0.59 2.914,-1.59 4.131,-2.907l2.044,2.135c-1.348,1.544 -3.001,2.725 -4.914,3.497c-1.913,0.817 -4.001,1.181 -6.262,1.181Z" style="fill-rule:nonzero;stroke:#000;stroke-width:1.31px;"></path></g><g><path d="M1335.254,517.395l13.916,-31.791l3.175,0l13.916,31.791l-3.392,0l-12.786,-29.838l1.305,0l-12.786,29.838l-3.349,0Zm5.48,-8.493l0.957,-2.725l17.7,0l1,2.725l-19.657,0Z" style="fill-rule:nonzero;stroke:#000;stroke-width:1.31px;"></path></g><g><path d="M1389.572,517.667c-2.261,0 -4.436,-0.363 -6.523,-1.135c-2.044,-0.772 -3.653,-1.771 -4.784,-2.997l1.261,-2.589c1.087,1.09 2.522,1.998 4.349,2.77c1.783,0.727 3.697,1.09 5.697,1.09c1.913,0 3.479,-0.227 4.653,-0.727c1.218,-0.5 2.087,-1.181 2.653,-2.044c0.609,-0.863 0.87,-1.817 0.87,-2.816c0,-1.272 -0.348,-2.271 -1,-2.997c-0.696,-0.772 -1.566,-1.362 -2.696,-1.817c-1.087,-0.454 -2.348,-0.817 -3.653,-1.135c-1.348,-0.318 -2.653,-0.681 -4.001,-1.09c-1.348,-0.363 -2.566,-0.863 -3.653,-1.499c-1.131,-0.636 -2.044,-1.453 -2.696,-2.543c-0.696,-1.045 -1.044,-2.407 -1.044,-4.087c0,-1.544 0.435,-2.997 1.218,-4.315c0.783,-1.317 2,-2.407 3.653,-3.225c1.653,-0.817 3.74,-1.181 6.349,-1.181c1.696,0 3.392,0.227 5.088,0.727c1.696,0.5 3.131,1.226 4.349,2.089l-1.087,2.68c-1.305,-0.908 -2.653,-1.59 -4.131,-1.998c-1.479,-0.409 -2.87,-0.636 -4.218,-0.636c-1.87,0 -3.392,0.272 -4.566,0.772c-1.218,0.545 -2.087,1.226 -2.653,2.089c-0.522,0.863 -0.826,1.817 -0.826,2.907c0,1.226 0.348,2.225 1.044,2.997c0.652,0.727 1.566,1.317 2.653,1.771c1.131,0.454 2.348,0.817 3.697,1.135c1.305,0.363 2.653,0.727 4.001,1.09c1.305,0.409 2.522,0.908 3.653,1.499c1.087,0.636 2,1.453 2.653,2.498c0.696,1.045 1.044,2.407 1.044,4.042c0,1.544 -0.391,2.997 -1.218,4.315c-0.783,1.317 -2.044,2.362 -3.74,3.179c-1.653,0.817 -3.783,1.181 -6.393,1.181Z" style="fill-rule:nonzero;stroke:#000;stroke-width:1.31px;"></path></g></g></g></svg>