<?xml version="1.0" encoding="UTF-8" standalone="no"?><!DOCTYPE svg PUBLIC "-//W3C//DTD SVG 1.1//EN" "http://www.w3.org/Graphics/SVG/1.1/DTD/svg11.dtd"><svg width="100%" height="100%" viewBox="0 0 2634 1482" version="1.1" xmlns="http://www.w3.org/2000/svg" xmlns:xlink="http://www.w3.org/1999/xlink" xml:space="preserve" xmlns:serif="http://www.serif.com/" style="fill-rule:evenodd;clip-rule:evenodd;stroke-linecap:round;stroke-linejoin:round;stroke-miterlimit:1.5;"><g id="placa_contato"><path d="M592.444,866.627l15.801,126.424l285.626,-47.37l-12.306,-94.4l-289.12,15.346Z" style="fill:#762c2c;stroke:#231f20;stroke-width:1.2px;"/><path d="M601.339,871.25l12.748,104.89l185.212,-33.648l-9.85,-78.33l-188.11,7.089Z" style="fill:#fff;stroke:#231f20;stroke-width:1.2px;"/><path d="M601.339,871.25l13.785,109.1l267.897,-43.217l-10.769,-81.46l-270.913,15.578Z" style="fill:#fff;"/><path d="M605.937,874.944l12.168,95.164l254.238,-39.943l-9.536,-71.051l-256.869,15.829Z" style="fill:#762c2c;stroke:#231f20;stroke-width:1.2px;"/><g transform="matrix(1.054938,-0.161955,0.161955,1.054938,-268.881881,650.600439)"><text x="777.858px" y="402.293px" style="font-family:'Arial-BoldMT', 'Arial', sans-serif;font-weight:700;font-size:60.92px;fill:#fff;">C</text><text x="821.852px" y="402.293px" style="font-family:'Arial-BoldMT', 'Arial', sans-serif;font-weight:700;font-size:56.111px;fill:#fff;">O</text><text x="865.497px" y="402.293px" style="font-family:'Arial-BoldMT', 'Arial', sans-serif;font-weight:700;font-size:49.698px;fill:#fff;">N</text><text x="901.387px" y="402.293px" style="font-family:'Arial-BoldMT', 'Arial', sans-serif;font-weight:700;font-size:46.492px;fill:#fff;">T</text><text x="929.786px" y="402.293px" style="font-family:'Arial-BoldMT', 'Arial', sans-serif;font-weight:700;font-size:41.682px;fill:#fff;">A</text><text x="959.888px" y="402.293px" style="font-family:'Arial-BoldMT', 'Arial', sans-serif;font-weight:700;font-size:36.873px;fill:#fff;">T</text><g transform="matrix(33.666425,0,0,33.666425,1008.59812,402.292662)"></g><text x="982.411px" y="402.293px" style="font-family:'Arial-BoldMT', 'Arial', sans-serif;font-weight:700;font-size:33.666px;fill:#fff;">O</text></g></g></svg>