<?xml version="1.0"?><svg width="100%" height="100%" viewBox="0 0 2634 1482" version="1.1" xmlns="http://www.w3.org/2000/svg" xmlns:xlink="http://www.w3.org/1999/xlink" xml:space="preserve" xmlns:serif="http://www.serif.com/" style="fill-rule:evenodd;clip-rule:evenodd;stroke-linecap:round;stroke-linejoin:round;stroke-miterlimit:1.5;"><path d="M737.672,295.435c2.576,-11.815 7.222,-12.608 9.577,-1.663l-1.959,901.276c-3.003,6.297 -5.557,9.846 -7.618,10.383c-4.925,2.391 -8.635,-0.174 -10.737,-9.303l10.737,-900.693Z" style="fill:#0b390b;stroke:#231f20;stroke-width:1.37px;"></path><g><path d="M861.878,449.848l2.085,113.712l-216.166,3.964l-2.085,-113.712l216.166,-3.964Z" style="fill:#762c2c;"></path><path d="M857.436,453.309l1.899,103.58l-206.033,3.778l-1.899,-103.58l206.033,-3.778Z" style="fill:#fff;stroke:#231f20;stroke-width:1.2px;"></path><path d="M854.131,457.311l1.755,95.699l-199.278,3.654l-1.755,-95.699l199.278,-3.654Z" style="fill:#762c2c;stroke:#231f20;stroke-width:1.2px;"></path><g transform="matrix(0.733114,-0.013442,0.013442,0.733114,112.939089,215.908785)"><text x="797.01px" y="402.293px" style="font-family:&#39;Arial-BoldMT&#39;, &#39;Arial&#39;, sans-serif;font-weight:700;font-size:53.005px;fill:#fff;">QUEM</text><g transform="matrix(53.004857,0,0,53.004857,975.176565,463.243072)"></g><text x="777.858px" y="463.243px" style="font-family:&#39;Arial-BoldMT&#39;, &#39;Arial&#39;, sans-serif;font-weight:700;font-size:53.005px;fill:#fff;">SOMOS</text></g></g><g><rect x="633.843" y="735.481" width="216.202" height="113.731" style="fill:#762c2c;stroke:#231f20;stroke-width:1.2px;"></rect><rect x="639.473" y="738.859" width="206.068" height="103.597" style="fill:#fff;stroke:#231f20;stroke-width:1.2px;"></rect><rect x="642.851" y="742.8" width="199.312" height="95.715" style="fill:#762c2c;stroke:#231f20;stroke-width:1.2px;"></rect><g transform="matrix(38.865155,0,0,38.865155,841.845205,802.166563)"></g><text x="641.693px" y="802.167px" style="font-family:&#39;Arial-BoldMT&#39;, &#39;Arial&#39;, sans-serif;font-weight:700;font-size:38.865px;fill:#fff;">SER<tspan x="720.904px 746.827px " y="802.167px 802.167px ">VI</tspan>ÇOS</text></g><g><path d="M672.302,314.817l-15.352,119.975l201.753,12.736l11.122,-89.685l-197.523,-43.026Z" style="fill:#762c2c;"></path><path d="M679.794,321.478l-13.331,104.817l187.812,12.741l9.636,-78.357l-184.117,-39.201Z" style="fill:#fff;stroke:#231f20;stroke-width:1.2px;"></path><path d="M679.794,321.478l-13.331,104.817l187.812,12.741l9.636,-78.357l-184.117,-39.201Z" style="fill:#fff;stroke:#231f20;stroke-width:1.2px;"></path><path d="M683.348,326.185l-12.051,95.17l178.07,12.623l8.696,-71.147l-174.715,-36.646Z" style="fill:#762c2c;stroke:#231f20;stroke-width:1.2px;"></path><g transform="matrix(0.944154,0.090077,-0.090077,0.944154,-21.540065,-54.431772)"><text x="777.858px" y="402.293px" style="font-family:&#39;Arial-BoldMT&#39;, &#39;Arial&#39;, sans-serif;font-weight:700;font-size:53.005px;fill:#fff;">M</text><text x="822.011px" y="402.293px" style="font-family:&#39;Arial-BoldMT&#39;, &#39;Arial&#39;, sans-serif;font-weight:700;font-size:51.712px;fill:#fff;">I</text><text x="836.378px" y="402.293px" style="font-family:&#39;Arial-BoldMT&#39;, &#39;Arial&#39;, sans-serif;font-weight:700;font-size:48.018px;fill:#fff;">S</text><text x="868.406px" y="402.293px" style="font-family:&#39;Arial-BoldMT&#39;, &#39;Arial&#39;, sans-serif;font-weight:700;font-size:44.325px;fill:#fff;">S</text><text x="897.97px" y="402.293px" style="font-family:&#39;Arial-BoldMT&#39;, &#39;Arial&#39;, sans-serif;font-weight:700;font-size:40.631px;fill:#fff;">Ã</text><g transform="matrix(36.937183,0,0,36.937183,956.043717,402.292662)"></g><text x="927.313px" y="402.293px" style="font-family:&#39;Arial-BoldMT&#39;, &#39;Arial&#39;, sans-serif;font-weight:700;font-size:36.937px;fill:#fff;">O</text></g></g><g><path d="M592.444,866.627l15.801,126.424l285.626,-47.37l-12.306,-94.4l-289.12,15.346Z" style="fill:#762c2c;stroke:#231f20;stroke-width:1.2px;"></path><path d="M601.339,871.25l12.748,104.89l185.212,-33.648l-9.85,-78.33l-188.11,7.089Z" style="fill:#fff;stroke:#231f20;stroke-width:1.2px;"></path><path d="M601.339,871.25l13.785,109.1l267.897,-43.217l-10.769,-81.46l-270.913,15.578Z" style="fill:#fff;"></path><path d="M605.937,874.944l12.168,95.164l254.238,-39.943l-9.536,-71.051l-256.869,15.829Z" style="fill:#762c2c;stroke:#231f20;stroke-width:1.2px;"></path><g transform="matrix(1.054938,-0.161955,0.161955,1.054938,-268.881881,650.600439)"><text x="777.858px" y="402.293px" style="font-family:&#39;Arial-BoldMT&#39;, &#39;Arial&#39;, sans-serif;font-weight:700;font-size:60.92px;fill:#fff;">C</text><text x="821.852px" y="402.293px" style="font-family:&#39;Arial-BoldMT&#39;, &#39;Arial&#39;, sans-serif;font-weight:700;font-size:56.111px;fill:#fff;">O</text><text x="865.497px" y="402.293px" style="font-family:&#39;Arial-BoldMT&#39;, &#39;Arial&#39;, sans-serif;font-weight:700;font-size:49.698px;fill:#fff;">N</text><text x="901.387px" y="402.293px" style="font-family:&#39;Arial-BoldMT&#39;, &#39;Arial&#39;, sans-serif;font-weight:700;font-size:46.492px;fill:#fff;">T</text><text x="929.786px" y="402.293px" style="font-family:&#39;Arial-BoldMT&#39;, &#39;Arial&#39;, sans-serif;font-weight:700;font-size:41.682px;fill:#fff;">A</text><text x="959.888px" y="402.293px" style="font-family:&#39;Arial-BoldMT&#39;, &#39;Arial&#39;, sans-serif;font-weight:700;font-size:36.873px;fill:#fff;">T</text><g transform="matrix(33.666425,0,0,33.666425,1008.59812,402.292662)"></g><text x="982.411px" y="402.293px" style="font-family:&#39;Arial-BoldMT&#39;, &#39;Arial&#39;, sans-serif;font-weight:700;font-size:33.666px;fill:#fff;">O</text></g></g><g><path d="M625.37,554.669l-19.435,156.921l271.217,16.676l14.052,-117.303l-265.834,-56.294Z" style="fill:#762c2c;"></path><path d="M630.486,578.963l-12.941,104.866l187.858,12.043l9.344,-78.392l-184.261,-38.517Z" style="fill:#fff;stroke:#231f20;stroke-width:1.2px;"></path><path d="M631.933,568.316l-16.812,136.993l258.813,17.555l12.114,-102.412l-254.114,-52.137Z" style="fill:#fff;stroke:#231f20;stroke-width:1.2px;"></path><path d="M641.957,578.09l-14.988,122.703l241.775,17.079l10.78,-91.731l-237.567,-48.05Z" style="fill:#762c2c;stroke:#231f20;stroke-width:1.2px;"></path><g transform="matrix(0.471266,0.043195,-0.043195,0.471266,281.80958,433.935237)"><text x="777.858px" y="402.293px" style="font-family:&#39;Arial-BoldMT&#39;, &#39;Arial&#39;, sans-serif;font-weight:700;font-size:106.028px;fill:#fff;">P</text><text x="848.577px" y="402.293px" style="font-family:&#39;Arial-BoldMT&#39;, &#39;Arial&#39;, sans-serif;font-weight:700;font-size:96.389px;fill:#fff;">U</text><text x="918.186px" y="402.293px" style="font-family:&#39;Arial-BoldMT&#39;, &#39;Arial&#39;, sans-serif;font-weight:700;font-size:83.537px;fill:#fff;">B</text><text x="978.514px" y="402.293px" style="font-family:&#39;Arial-BoldMT&#39;, &#39;Arial&#39;, sans-serif;font-weight:700;font-size:77.111px;fill:#fff;">L</text><text x="1025.617px" y="402.293px" style="font-family:&#39;Arial-BoldMT&#39;, &#39;Arial&#39;, sans-serif;font-weight:700;font-size:67.472px;fill:#fff;">I</text><text x="1044.363px" y="402.293px" style="font-family:&#39;Arial-BoldMT&#39;, &#39;Arial&#39;, sans-serif;font-weight:700;font-size:61.046px;fill:#fff;">C</text><text x="1088.448px" y="402.293px" style="font-family:&#39;Arial-BoldMT&#39;, &#39;Arial&#39;, sans-serif;font-weight:700;font-size:57.833px;fill:#fff;">A</text><text x="1130.214px" y="402.293px" style="font-family:&#39;Arial-BoldMT&#39;, &#39;Arial&#39;, sans-serif;font-weight:700;font-size:51.407px;fill:#fff;">Ç</text><g transform="matrix(53.004857,0,0,53.004857,1279.274857,402.292662)"></g><text x="1167.338px" y="402.293px" style="font-family:&#39;Arial-BoldMT&#39;, &#39;Arial&#39;, sans-serif;font-weight:700;font-size:53.005px;fill:#fff;">ÕES</text></g></g></svg>