<?xml version="1.0" encoding="UTF-8" standalone="no"?><!DOCTYPE svg PUBLIC "-//W3C//DTD SVG 1.1//EN" "http://www.w3.org/Graphics/SVG/1.1/DTD/svg11.dtd"><svg width="100%" height="100%" viewBox="0 0 2634 1482" version="1.1" xmlns="http://www.w3.org/2000/svg" xmlns:xlink="http://www.w3.org/1999/xlink" xml:space="preserve" xmlns:serif="http://www.serif.com/" style="fill-rule:evenodd;clip-rule:evenodd;stroke-linecap:round;stroke-linejoin:round;stroke-miterlimit:1.5;"><g id="placa_missao"><path d="M672.302,314.817l-15.352,119.975l201.753,12.736l11.122,-89.685l-197.523,-43.026Z" style="fill:#762c2c;"/><path d="M679.794,321.478l-13.331,104.817l187.812,12.741l9.636,-78.357l-184.117,-39.201Z" style="fill:#fff;stroke:#231f20;stroke-width:1.2px;"/><path d="M679.794,321.478l-13.331,104.817l187.812,12.741l9.636,-78.357l-184.117,-39.201Z" style="fill:#fff;stroke:#231f20;stroke-width:1.2px;"/><path d="M683.348,326.185l-12.051,95.17l178.07,12.623l8.696,-71.147l-174.715,-36.646Z" style="fill:#762c2c;stroke:#231f20;stroke-width:1.2px;"/><g transform="matrix(0.944154,0.090077,-0.090077,0.944154,-21.540065,-54.431772)"><text x="777.858px" y="402.293px" style="font-family:'Arial-BoldMT', 'Arial', sans-serif;font-weight:700;font-size:53.005px;fill:#fff;">M</text><text x="822.011px" y="402.293px" style="font-family:'Arial-BoldMT', 'Arial', sans-serif;font-weight:700;font-size:51.712px;fill:#fff;">I</text><text x="836.378px" y="402.293px" style="font-family:'Arial-BoldMT', 'Arial', sans-serif;font-weight:700;font-size:48.018px;fill:#fff;">S</text><text x="868.406px" y="402.293px" style="font-family:'Arial-BoldMT', 'Arial', sans-serif;font-weight:700;font-size:44.325px;fill:#fff;">S</text><text x="897.97px" y="402.293px" style="font-family:'Arial-BoldMT', 'Arial', sans-serif;font-weight:700;font-size:40.631px;fill:#fff;">Ã</text><g transform="matrix(36.937183,0,0,36.937183,956.043717,402.292662)"></g><text x="927.313px" y="402.293px" style="font-family:'Arial-BoldMT', 'Arial', sans-serif;font-weight:700;font-size:36.937px;fill:#fff;">O</text></g></g></svg>