<?xml version="1.0"?><svg width="100%" height="100%" viewBox="0 0 2634 1482" version="1.1" xmlns="http://www.w3.org/2000/svg" xmlns:xlink="http://www.w3.org/1999/xlink" xml:space="preserve" xmlns:serif="http://www.serif.com/" style="fill-rule:evenodd;clip-rule:evenodd;stroke-linecap:round;stroke-linejoin:round;stroke-miterlimit:1.5;"><g id="placa_publicacoes"><path d="M625.37,554.669l-19.435,156.921l271.217,16.676l14.052,-117.303l-265.834,-56.294Z" style="fill:#762c2c;"></path><path d="M630.486,578.963l-12.941,104.866l187.858,12.043l9.344,-78.392l-184.261,-38.517Z" style="fill:#fff;stroke:#231f20;stroke-width:1.2px;"></path><path d="M631.933,568.316l-16.812,136.993l258.813,17.555l12.114,-102.412l-254.114,-52.137Z" style="fill:#fff;stroke:#231f20;stroke-width:1.2px;"></path><path d="M641.957,578.09l-14.988,122.703l241.775,17.079l10.78,-91.731l-237.567,-48.05Z" style="fill:#762c2c;stroke:#231f20;stroke-width:1.2px;"></path><g transform="matrix(0.471266,0.043195,-0.043195,0.471266,281.80958,433.935237)"><text x="777.858px" y="402.293px" style="font-family:&#39;Arial-BoldMT&#39;, &#39;Arial&#39;, sans-serif;font-weight:700;font-size:106.028px;fill:#fff;">P</text><text x="848.577px" y="402.293px" style="font-family:&#39;Arial-BoldMT&#39;, &#39;Arial&#39;, sans-serif;font-weight:700;font-size:96.389px;fill:#fff;">U</text><text x="918.186px" y="402.293px" style="font-family:&#39;Arial-BoldMT&#39;, &#39;Arial&#39;, sans-serif;font-weight:700;font-size:83.537px;fill:#fff;">B</text><text x="978.514px" y="402.293px" style="font-family:&#39;Arial-BoldMT&#39;, &#39;Arial&#39;, sans-serif;font-weight:700;font-size:77.111px;fill:#fff;">L</text><text x="1025.617px" y="402.293px" style="font-family:&#39;Arial-BoldMT&#39;, &#39;Arial&#39;, sans-serif;font-weight:700;font-size:67.472px;fill:#fff;">I</text><text x="1044.363px" y="402.293px" style="font-family:&#39;Arial-BoldMT&#39;, &#39;Arial&#39;, sans-serif;font-weight:700;font-size:61.046px;fill:#fff;">C</text><text x="1088.448px" y="402.293px" style="font-family:&#39;Arial-BoldMT&#39;, &#39;Arial&#39;, sans-serif;font-weight:700;font-size:57.833px;fill:#fff;">A</text><text x="1130.214px" y="402.293px" style="font-family:&#39;Arial-BoldMT&#39;, &#39;Arial&#39;, sans-serif;font-weight:700;font-size:51.407px;fill:#fff;">Ç</text><g transform="matrix(53.004857,0,0,53.004857,1279.274857,402.292662)"></g><text x="1167.338px" y="402.293px" style="font-family:&#39;Arial-BoldMT&#39;, &#39;Arial&#39;, sans-serif;font-weight:700;font-size:53.005px;fill:#fff;">ÕES</text></g></g></svg>