<?xml version="1.0" encoding="UTF-8" standalone="no"?><!DOCTYPE svg PUBLIC "-//W3C//DTD SVG 1.1//EN" "http://www.w3.org/Graphics/SVG/1.1/DTD/svg11.dtd"><svg width="100%" height="100%" viewBox="0 0 2634 1482" version="1.1" xmlns="http://www.w3.org/2000/svg" xmlns:xlink="http://www.w3.org/1999/xlink" xml:space="preserve" xmlns:serif="http://www.serif.com/" style="fill-rule:evenodd;clip-rule:evenodd;stroke-linecap:round;stroke-linejoin:round;stroke-miterlimit:1.5;"><path id="SILHUETA7" d="M0,570.325c65.576,-5.044 65.576,-7.567 65.576,-7.567l36.895,-32.962l-2.286,-12.343l5.029,-7.771l5.486,-9.143l16.457,-14.171l11.429,-8.229l0.914,-14.171l19.2,-17.371l-0.457,-12.8l-5.486,-5.029l21.486,-27.429l9.143,-0.914l0.457,-20.114l47.543,-23.314l2.743,-16.457l37.486,0.457l0.457,-44.8l6.4,-0.457l-0.457,-9.6l12.8,0l-0.457,-7.314l5.486,0.914l-0.457,-45.257l-5.486,0l4.114,-58.971l-5.486,0l1.371,-51.657l-13.257,-8.686l-37.029,-0.457l-11.886,-22.4l-5.029,0.457l-18.286,1.371l-0.914,-4.571l-6.4,-0.914l-1.6,-2.776l2.939,-3.135l0,-2.351l11.559,0.196l0,-3.722l8.62,-0.588l2.743,3.722l40.947,-0.98l32.718,-12.735l17.437,0.392l-0.392,-32.522c2.498,-15.214 22.914,-15.579 22.812,0.196l0.392,31.935l45.649,14.498l43.298,0.588l1.567,-2.547l10.971,-0.196l1.176,2.155l8.62,0.392l0,1.959l3.331,0.196l-0.196,3.918l-4.898,2.155l0,1.763l-9.404,3.331l-9.208,-0.196l-4.898,-3.331l-2.743,0.196l-12.147,23.314l-51.722,2.743l1.763,84.245l-4.31,0.196l-0.784,80.914l11.167,-0.196l1.176,9.6l7.249,0l-0.784,48.784l31.151,0l0.588,16.849l7.445,0.588l1.763,-4.702l8.816,0c0,0 15.869,13.714 17.633,15.282c1.763,1.567 0.98,8.229 0.98,8.229l-4.114,4.31l16.653,13.518l8.229,0.196c0,0 14.627,23.51 15.607,25.665c0.98,2.155 1.176,10.776 1.176,10.776l-0.392,6.857l12.147,19.788l8.62,0.98l9.796,14.498l-0.588,5.29l7.249,0.196l7.445,12.147l0,11.755l6.073,2.939l0.588,4.31l-6.269,5.486l-0.196,7.053l3.527,0.98l0.196,10.971l27.624,26.841l0.784,11.559l-2.547,3.331l15.673,26.449l0.196,16.261l9.6,19.2l4.898,43.102l7.641,32.914l16.849,21.355l17.633,21.551l12.539,16.457c0,0 11.951,28.408 6.269,24.294c-5.682,-4.114 12.157,17.829 12.157,17.829l22.727,15.673l31.02,72.163l17.371,23.771l39.314,1.829l17.371,-7.314c0,0 8.229,-10.057 25.6,0.914c17.371,10.971 27.429,20.114 27.429,20.114l21.029,21.029l16.457,7.314l9.143,21.029l24.686,8.229l37.486,5.486l18.286,10.057l0.914,15.543l1.829,12.8l9.143,2.743l6.4,-14.629l11.886,1.829l12.8,5.486l0.914,14.629l17.371,1.829l-1.829,-35.657l8.229,0l9.143,-6.4l35.657,-0.914l14.629,8.229l1.829,75.886l5.174,-0.543l0,-11.751l21.544,0.839l15.668,-17.347l10.632,0.56l10.912,16.228l10.352,0.28l0.28,21.264l17.627,0.28l0.567,-12.87l6.715,0l0.28,-7.275l12.87,0.56l6.155,6.995l0,11.471l16.787,0.56l-0.28,52.32l10.352,0l0,-3.637l6.435,0l0,-9.793l16.228,1.119l0.28,8.953l6.155,0l4.756,6.435l0.28,11.751l13.597,0l0,-44.207l27.532,-0.28l0.28,-13.43l47.564,-0.56l0.28,12.311l26.58,0.28l0,85.615l15.388,0l-0.28,-13.71l25.162,-0.28l0.28,-6.995l8.114,0.28l0,-6.995l2.518,0l0,7.834l8.953,0l0,5.596l25.741,0.839l0,23.782l11.192,-0.28l4.197,-5.316l3.637,0.28l14.829,12.311l-0.28,9.513l7.275,-0.28l0.56,-62.393l19.305,-8.953l0,-4.477l33.015,1.119l0.56,3.917l19.865,8.114l0,54.839l14.829,0l-0.28,-8.394l26.605,0.28l0.28,8.953l13.15,0l0.28,5.316l31.057,-0.28l-0.28,-35.813l57.916,0.28l-0.839,26.58l26.02,0l0,-12.87l6.715,-0.28l-0.28,-9.793l15.388,-0.28l0.28,14.549l19.585,0.28l-0.28,-31.336l37.771,0l0.28,-38.051l44.486,0l0.105,-36.932l4.756,-0.28l-1.959,87.854l18.186,0.56l40.01,-11.471l0.28,-11.471l23.222,-0.839l0,-30.777l6.155,0.56l0,30.217l17.347,-0.28l-0.839,-26.86l4.756,-0.839l1.679,27.419l13.989,0.56l95.628,-29.098c41.385,-16.053 81.566,-32.708 118.071,-51.201c15.524,-9.018 29.006,-19.398 37.212,-33.295c4.297,-4.061 3.138,-12.487 -4.756,-26.3c-22.365,-18.428 -57.535,-26.897 -101.843,-28.259c3.643,-4.857 -193.296,-5.735 -199.758,-4.906c-11.476,1.471 -240.756,-21.493 -249.012,-25.031l-192.466,-17.627l61.274,-29.658l-99.605,-4.477l-0.839,6.155l-191.63,-2.798l-0.28,-5.876l-91.771,-1.959l2.518,-8.114l-69.667,0.28l-103.174,-7.554l38.051,-27.419l0,-3.917c0,0 -7.834,0.28 -9.793,1.959c-1.959,1.679 -9.513,8.953 -9.513,8.953l-108.558,1.119l-77.473,-1.774c0,0 -70.4,-6.4 -94.171,-18.286c-23.771,-11.886 -41.143,-4.571 -41.143,-4.571l44.8,-10.057l40.229,-21.943l29.257,-21.943l21.943,2.743l53.029,10.971l19.2,8.229l9.486,-5.029l10.286,7.886l10.629,0.343l7.2,9.257l20.571,5.829l8.914,3.086l8.914,8.571l9.943,1.714l9.257,-7.2l6.514,-0.343l5.143,8.914l25.029,-12l5.829,0l3.771,8.229l12,0.686l21.943,-14.743l15.771,-3.086l34.581,1.371l4.114,-8.571l31.2,0.343l8.229,-10.286l5.829,-1.029l4.457,5.486l13.029,-0.686l5.143,-7.886l9.943,1.714l10.629,-14.4l16.114,1.371l1.371,-5.143l12.343,0.343l9.943,-7.2l12.686,1.029l5.829,-7.543l14.743,0l7.886,-7.543l17.486,-0.343l16.114,-7.886l13.029,0.343l16.114,-13.029l10.286,-0.343l134.088,-68.229l38.057,-132c9.043,-25.328 19.033,-47.815 30.514,-65.829c-3.816,-3.816 27.702,-40.527 29.829,-40.457c3.691,0.121 0.686,-6.514 0.686,-6.514l32.229,-24l12,0l-0.343,-14.743l21.6,0l1.371,15.086l7.886,-0.686l0.343,5.829l12.686,-1.029l-0.686,9.6c45.638,48.571 69.854,97.143 81.357,145.714l15.086,74.4l11.657,33.257l28.114,16.8l21.257,-1.714l4.457,-6.857l17.486,0l5.143,5.143l11.314,-11.657l6.514,0l-1.029,-11.314l7.886,-9.943l26.313,0.686l-0.686,-6.857l16.457,1.029l3.771,5.486l42.857,0.686l1.714,3.086l17.143,0.343l12,16.8c0,0 5.486,0 8.571,1.714c3.086,1.714 4.114,4.457 4.114,4.457l-4.457,5.829l7.543,10.629l9.257,2.4l5.486,4.114l0.343,10.971l54.171,76.8l41.495,64.114l28.8,28.114l10.629,-1.714l-0.343,-3.771l32.571,2.057l1.029,3.086l6.171,3.771l1.029,18.514l5.486,-0.343l1.029,6.857l3.771,0.343l0.343,-9.6l7.886,0.343l10.629,-6.857l9.943,0.343l6.857,6.514l10.286,0l-0.343,17.143c0,0 9.943,6.171 7.886,0.343c-2.057,-5.829 0.343,-5.829 0.343,-5.829l16.114,0l-1.371,-5.143l19.2,1.029l1.029,8.914c0,0 27.429,4.8 22.629,0c-4.8,-4.8 1.371,15.086 1.371,15.086l11.314,0l-0.343,-17.486l21.943,-0.343l-0.686,-5.143l36.742,0l0,17.143l8.914,1.371l-0.686,-16.8l15.429,0.343l3.429,-7.543l13.714,0.343l3.086,6.514l8.571,1.029l0,-11.314l13.029,0.343l1.029,4.8l6.514,0l-0.343,-10.629l6.171,0.343c0,0 -4.8,-13.029 0.343,-12c5.143,1.029 11.314,2.057 11.314,2.057l1.371,-5.486l10.629,-0.343l0.686,-5.143c0,0 28.114,3.429 28.8,0c0.686,-3.429 -3.086,-14.057 -3.086,-14.057l-35.314,-0.343c0,0 5.829,-6.514 -0.343,-8.914c-6.171,-2.4 -45.943,-0.686 -45.943,-0.686l21.943,-19.2l15.429,-0.686l2.4,-7.886l21.257,1.029l5.829,-5.143l7.886,1.371l1.714,-5.829l34.571,0" style="fill:#e7e8e9;fill-opacity:0;stroke:#231f20;stroke-width:1.37px;"/><path id="SILHUETA6" d="M623.543,1237.547l54.725,2.036l673.506,25.627c459.441,16.807 756.854,-95.848 870.052,-153.607c87.014,-44.399 51.584,-69.468 41.491,-78.856c-20.206,-18.794 -156.996,-25.317 -165.669,-25.417" style="fill:#e7e8e9;fill-opacity:0;stroke:#231f20;stroke-width:1.37px;"/><path id="SILHUETA5" d="M-0,1325.933l1385.02,9.241c393.266,-9.771 704.291,-92.3 828.273,-167.569c75.337,-45.737 230.441,-155.898 -98.205,-158.354" style="fill:#e7e8e9;fill-opacity:0;stroke:#231f20;stroke-width:1.37px;"/><path id="SILHUETA4" d="M597.862,1234.573l-131.657,-3.657" style="fill:none;stroke:#231f20;stroke-width:1.2px;"/><path id="SILHUETA3" d="M435.119,1230.916l-190.171,-3.657" style="fill:none;stroke:#231f20;stroke-width:1.2px;"/><path id="SILHUETA2" d="M213.862,1221.773l-160.914,-1.829" style="fill:none;stroke:#231f20;stroke-width:1.2px;"/><path id="SILHUETA1" d="M29.176,1219.944l-31.086,3.657" style="fill:none;stroke:#231f20;stroke-width:1.2px;"/></svg>